<svg fill="none" height="24" viewBox="0 0 24 24" width="24" xmlns="http://www.w3.org/2000/svg" xmlns:xlink="http://www.w3.org/1999/xlink"><clipPath id="a"><path d="m0 0h24v24h-24z"/></clipPath><g clip-path="url(#a)" stroke="current" stroke-linecap="round" stroke-linejoin="round" stroke-width="2"><path d="m12 15c1.6569 0 3-1.3431 3-3s-1.3431-3-3-3-3 1.3431-3 3 1.3431 3 3 3z"/><path d="m19.4 15c-.1331.3016-.1728.6362-.114.9606s.2135.6237.444.8594l.06.06c.186.1857.3335.4063.4341.6491.1007.2428.1525.5031.1525.7659s-.0518.5231-.1525.7659c-.1006.2428-.2481.4634-.4341.6491-.1857.186-.4063.3335-.6491.4341-.2428.1007-.5031.1525-.7659.1525s-.5231-.0518-.7659-.1525c-.2428-.1006-.4634-.2481-.6491-.4341l-.06-.06c-.2357-.2305-.535-.3852-.8594-.444s-.659-.0191-.9606.114c-.2958.1268-.548.3372-.7257.6055s-.273.5827-.2743.9045v.17c0 .5304-.2107 1.0391-.5858 1.4142s-.8838.5858-1.4142.5858-1.0391-.2107-1.4142-.5858-.5858-.8838-.5858-1.4142v-.09c-.0077-.331-.11488-.652-.30749-.9213s-.46177-.4744-.77251-.5887c-.30162-.1331-.63619-.1728-.96059-.114-.32439.0588-.62373.2135-.85941.444l-.06.06c-.18575.186-.40632.3335-.64912.4341-.2428.1007-.50305.1525-.76588.1525s-.52308-.0518-.76588-.1525c-.2428-.1006-.46337-.2481-.64912-.4341-.18595-.1857-.33347-.4063-.43412-.6491s-.15245-.5031-.15245-.7659.0518-.5231.15245-.7659.24817-.4634.43412-.6491l.06-.06c.23054-.2357.38519-.535.444-.8594.05882-.3244.01912-.659-.114-.9606-.12676-.2958-.33724-.548-.60553-.7257s-.58268-.273-.90447-.2743h-.17c-.53043 0-1.03914-.2107-1.41421-.5858-.37508-.3751-.58579-.8838-.58579-1.4142s.21071-1.0391.58579-1.4142c.37507-.3751.88378-.5858 1.41421-.5858h.09c.33099-.0077.652-.11488.9213-.30749.26929-.19261.47442-.46177.5887-.77251.13312-.30162.17282-.63619.114-.96059-.05881-.32439-.21346-.62373-.444-.85941l-.06-.06c-.18595-.18575-.33347-.40632-.43412-.64912s-.15245-.50305-.15245-.76588.0518-.52308.15245-.76588.24817-.46337.43412-.64912c.18575-.18595.40632-.33347.64912-.43412s.50305-.15245.76588-.15245.52308.0518.76588.15245.46337.24817.64912.43412l.06.06c.23568.23054.53502.38519.85941.444.3244.05882.65897.01912.96059-.114h.08c.29577-.12676.54802-.33724.72569-.60553.17768-.26829.27303-.58268.27431-.90447v-.17c0-.53043.2107-1.03914.5858-1.41421.3751-.37508.8838-.58579 1.4142-.58579s1.0391.21071 1.4142.58579c.3751.37507.5858.88378.5858 1.41421v.09c.0013.32179.0966.63618.2743.90447s.4299.47877.7257.60553c.3016.13312.6362.17282.9606.114.3244-.05881.6237-.21346.8594-.444l.06-.06c.1857-.18595.4063-.33347.6491-.43412s.5031-.15245.7659-.15245.5231.0518.7659.15245.4634.24817.6491.43412c.186.18575.3335.40632.4341.64912.1007.2428.1525.50305.1525.76588s-.0518.52308-.1525.76588c-.1006.2428-.2481.46337-.4341.64912l-.06.06c-.2305.23568-.3852.53502-.444.85941-.0588.3244-.0191.65897.114.96059v.08c.1268.29577.3372.54802.6055.72569.2683.17768.5827.27303.9045.27431h.17c.5304 0 1.0391.2107 1.4142.5858s.5858.8838.5858 1.4142-.2107 1.0391-.5858 1.4142-.8838.5858-1.4142.5858h-.09c-.3218.0013-.6362.0966-.9045.2743s-.4787.4299-.6055.7257z"/></g></svg>